External Loads File
version=1
nRows=62
nColumns=13
Range=5.000000e-03-10 seconds
endheader
time 	forceRightX 	forceRightY 	forceRightZ 	pointRightX 	pointRightY 	pointRightZ 	forceLeftX 	forceLeftY 	forceLeftZ 	pointLeftX 	pointLeftY 	pointLeftZ 		
5.005000 229.383387 713.847570 -0.000000 0.310385 0.174484 -0.160952 -59.761798 -67.236468 -0.000000 0.184713 0.461336 -0.400761
5.010000 241.729170 706.500071 -0.000000 0.301580 0.169215 -0.160998 -67.854343 -64.560399 -0.000000 0.194127 0.466913 -0.400689
5.015000 251.387670 696.268303 -0.000000 0.292771 0.164506 -0.160679 -74.616352 -59.957367 -0.000000 0.203644 0.471956 -0.400466
5.020000 259.281216 682.355925 -0.000000 0.283751 0.160367 -0.160336 -80.006344 -53.104069 -0.000000 0.213419 0.476417 -0.400395
5.025000 265.017274 664.311304 -0.000000 0.274608 0.156873 -0.159930 -83.832754 -43.886389 -0.000000 0.223282 0.480262 -0.400189
5.030000 268.886355 641.412016 -0.000000 0.265311 0.153978 -0.159649 -85.927975 -32.298699 -0.000000 0.233306 0.483508 -0.399527
5.035000 270.450290 613.342620 -0.000000 0.256017 0.151613 -0.159333 -86.083307 -18.629622 -0.000000 0.243406 0.486014 -0.399436
5.040000 269.757470 579.835688 -0.000000 0.246598 0.150084 -0.159151 -84.154345 -3.256714 -0.000000 0.253495 0.487892 -0.399550
5.045000 266.794529 540.983970 -0.000000 0.237188 0.149168 -0.158854 -80.053325 13.290494 -0.000000 0.263677 0.489069 -0.399505
5.050000 261.217678 497.390721 -0.000000 0.227636 0.148875 -0.158504 -73.833158 30.279408 -0.000000 0.273542 0.489650 -0.399375
5.055000 253.041439 449.759076 -0.000000 0.218023 0.149402 -0.158031 -65.740279 46.967011 -0.000000 0.283017 0.489694 -0.399634
5.060000 242.380041 398.897193 -0.000000 0.208483 0.150588 -0.157851 -56.213280 62.736587 -0.000000 0.292190 0.489204 -0.399917
5.065000 229.566670 345.512532 -0.000000 0.199007 0.152474 -0.157682 -45.798840 77.276664 -0.000000 0.301142 0.488106 -0.400159
5.070000 214.463736 290.536770 -0.000000 0.189874 0.155128 -0.157340 -35.148427 90.591740 -0.000000 0.309787 0.486289 -0.400410
5.075000 196.943428 234.870135 -0.000000 0.181138 0.158229 -0.156921 -24.890518 103.080604 -0.000000 0.317879 0.483818 -0.400817
5.080000 177.475660 178.902352 -0.000000 0.172646 0.162224 -0.156620 -15.323776 115.482141 -0.000000 0.325474 0.480551 -0.401271
5.085000 155.955295 123.529396 -0.000000 0.164684 0.166830 -0.156590 -6.899462 128.626330 -0.000000 0.332572 0.476635 -0.401717
5.090000 132.670379 69.511101 -0.000000 0.157156 0.172065 -0.156657 0.153069 143.482153 -0.000000 0.339127 0.472059 -0.402151
5.095000 107.980271 17.777261 -0.000000 0.150043 0.177939 -0.156725 5.770799 161.022676 -0.000000 0.345245 0.466711 -0.402697
5.100000 82.296909 -30.396544 -0.000000 0.143311 0.184205 -0.156764 9.734976 182.048252 -0.000000 0.350674 0.460626 -0.403235
5.105000 56.188297 -73.796807 -0.000000 0.137153 0.190993 -0.156745 12.065844 206.976033 -0.000000 0.355788 0.453833 -0.403882
5.110000 30.346790 -111.077702 -0.000000 0.131457 0.198104 -0.156688 12.555475 235.743317 -0.000000 0.360401 0.446323 -0.404460
5.115000 5.679440 -141.058607 -0.000000 0.126260 0.205487 -0.156733 10.944677 267.779794 -0.000000 0.364576 0.438315 -0.404991
5.120000 -17.024812 -162.898646 -0.000000 0.121447 0.213220 -0.156731 7.566361 302.030912 -0.000000 0.368538 0.429503 -0.404945
5.125000 -36.603544 -176.237969 -0.000000 0.116827 0.221230 -0.156694 2.327502 337.152485 -0.000000 0.372383 0.420368 -0.404618
5.130000 -52.260323 -181.312025 -0.000000 0.112074 0.229633 -0.157520 -4.127225 371.710380 -0.000000 0.375868 0.410509 -0.404497
5.135000 -62.934328 -179.098668 -0.000000 0.108290 0.238436 -0.157588 -12.075364 404.427947 -0.000000 0.379111 0.400040 -0.404692
5.140000 -68.296931 -170.977197 -0.000000 0.104948 0.247545 -0.157592 -21.167719 434.372000 -0.000000 0.382005 0.389230 -0.404800
5.145000 -68.445232 -158.547923 -0.000000 0.101933 0.257196 -0.157744 -31.096477 461.087106 -0.000000 0.384557 0.378521 -0.404856
5.150000 -63.919394 -143.389429 -0.000000 0.099458 0.266981 -0.157870 -41.427576 484.592002 -0.000000 0.386706 0.367513 -0.404924
5.155000 -55.796419 -126.810116 -0.000000 0.097498 0.277235 -0.158021 -50.799843 505.357812 -0.000000 0.388424 0.356177 -0.405039
5.160000 -44.772413 -110.105584 -0.000000 0.096371 0.287618 -0.158098 -59.969223 523.891917 -0.000000 0.389638 0.345083 -0.405080
5.165000 -32.202312 -93.990670 -0.000000 0.095509 0.298201 -0.158364 -67.561325 541.032008 -0.000000 0.390446 0.333980 -0.405063
5.170000 -19.047290 -79.039836 -0.000000 0.095196 0.308813 -0.158673 -73.702117 557.508350 -0.000000 0.390874 0.322941 -0.405287
5.175000 -6.228311 -65.580831 -0.000000 0.095650 0.319434 -0.158852 -78.251703 574.032037 -0.000000 0.390681 0.312020 -0.405022
5.180000 5.463818 -53.796459 -0.000000 0.096751 0.330107 -0.159009 -80.703046 591.231001 -0.000000 0.389928 0.301192 -0.404478
5.185000 15.503980 -43.790511 -0.000000 0.098635 0.340615 -0.159113 -81.122622 609.477386 -0.000000 0.388582 0.290454 -0.404524
5.190000 23.532333 -35.619288 -0.000000 0.101151 0.351074 -0.159206 -79.468816 628.968373 -0.000000 0.386844 0.280016 -0.403703
5.195000 29.308197 -29.349973 -0.000000 0.104172 0.361313 -0.159300 -75.233316 649.796191 -0.000000 0.384320 0.269625 -0.403325
5.200000 32.677212 -25.070980 -0.000000 0.108012 0.371447 -0.159383 -67.852357 671.962138 -0.000000 0.381145 0.259282 -0.403089
5.205000 33.549729 -22.784345 -0.000000 0.112388 0.381410 -0.159496 -58.079291 695.279927 -0.000000 0.377369 0.249214 -0.402884
5.210000 31.816475 -22.421854 -0.000000 0.117409 0.391131 -0.159663 -45.868398 719.556715 -0.000000 0.372966 0.239427 -0.402648
5.215000 27.444692 -23.748884 -0.000000 0.122986 0.400647 -0.159863 -31.083896 744.437562 -0.000000 0.367981 0.229912 -0.402390
5.220000 20.552248 -26.359267 -0.000000 0.129310 0.409877 -0.160045 -13.698411 769.426982 -0.000000 0.362401 0.220809 -0.402051
5.225000 11.485509 -29.725783 -0.000000 0.136155 0.418631 -0.160252 5.478025 793.967177 -0.000000 0.356278 0.212221 -0.401763
5.230000 0.720514 -33.336667 -0.000000 0.143480 0.427046 -0.160463 27.013888 817.511298 -0.000000 0.349613 0.203990 -0.401442
5.235000 -11.146231 -36.702137 -0.000000 0.151268 0.434936 -0.160693 50.248880 839.509486 -0.000000 0.342452 0.196226 -0.401160
5.240000 -23.548314 -39.399112 -0.000000 0.159425 0.442278 -0.161007 74.915596 859.402639 -0.000000 0.334791 0.188978 -0.400923
5.245000 -36.010890 -40.979395 -0.000000 0.168189 0.449119 -0.161123 101.771558 876.446181 -0.000000 0.326686 0.182084 -0.400774
5.250000 -48.002137 -41.050497 -0.000000 0.177193 0.455599 -0.161377 129.494270 889.959850 -0.000000 0.318211 0.175799 -0.400618
5.255000 -59.073417 -39.235226 -0.000000 0.186485 0.461421 -0.161539 157.514312 899.146872 -0.000000 0.309404 0.170097 -0.400510
5.260000 -68.811562 -35.252147 -0.000000 0.195588 0.466846 -0.161995 184.470810 903.416904 -0.000000 0.300302 0.165016 -0.400421
5.265000 -77.016980 -28.528209 -0.000000 0.206040 0.471453 -0.161516 213.384849 901.377225 -0.000000 0.291040 0.160377 -0.400467
5.270000 -83.187776 -19.260601 -0.000000 0.216025 0.475377 -0.161978 239.208542 893.401748 -0.000000 0.281564 0.156403 -0.400472
5.275000 -87.060366 -7.493864 -0.000000 0.226004 0.478649 -0.162039 262.504359 878.698668 -0.000000 0.271992 0.153035 -0.400547
5.280000 -88.441446 6.429616 -0.000000 0.236344 0.481119 -0.161832 283.608225 856.406452 -0.000000 0.262403 0.150354 -0.400544
5.285000 -87.348476 21.697454 -0.000000 0.246228 0.483254 -0.162198 300.273425 826.625382 -0.000000 0.252751 0.148525 -0.400492
5.290000 -83.955408 37.739418 -0.000000 0.256304 0.485206 -0.162343 313.385422 788.640139 -0.000000 0.243132 0.147234 -0.400442
5.295000 -78.545693 53.797152 -0.000000 0.266323 0.486519 -0.162452 321.752347 742.630068 -0.000000 0.233556 0.146699 -0.400471
5.300000 -71.441777 69.300773 -0.000000 0.276214 0.487351 -0.162444 324.724479 688.874992 -0.000000 0.224049 0.146844 -0.400414
5.305000 -62.991255 83.887090 -0.000000 0.285854 0.487280 -0.162673 321.860623 628.070289 -0.000000 0.214681 0.147752 -0.400436
5.310000 -53.662418 97.338632 -0.000000 0.294883 0.486962 -0.162632 312.532213 561.686120 -0.000000 0.205473 0.149489 -0.400281
